<svg xmlns="http://www.w3.org/2000/svg" xmlns:xlink="http://www.w3.org/1999/xlink" viewBox="0 0 103.9 163.32"><defs><style>.cls-1{isolation:isolate;}.cls-2{fill:#188eb5;}.cls-3{fill:#215c8c;}.cls-4{fill:#200c45;}.cls-5{fill:#ffb0b0;}.cls-6,.cls-8{fill:#ff8f8f;}.cls-7{fill:#fff;}.cls-13,.cls-8{mix-blend-mode:multiply;}.cls-9{fill:#8dc6bd;}.cls-10{fill:#55937e;}.cls-11{fill:#e0e0e0;}.cls-12{fill:#bac7ff;}.cls-14{fill:url(#_16);}.cls-15{fill:#9eb0ff;}</style><linearGradient id="_16" x1="600.87" y1="10.1" x2="600.29" y2="14.93" gradientTransform="matrix(-1, 0, 0, 1, 632.33, 0)" gradientUnits="userSpaceOnUse"><stop offset="0" stop-color="#fff"/><stop offset="0.2" stop-color="#e7e7e7"/><stop offset="0.54" stop-color="#c5c5c5"/><stop offset="0.82" stop-color="#b0b0b0"/><stop offset="1" stop-color="#a8a8a8"/></linearGradient></defs><title>people</title><g class="cls-1"><g id="Layer_2" data-name="Layer 2"><g id="Layer_2-2" data-name="Layer 2"><path class="cls-2" d="M59.67,2.83S61.06-.48,64.4.23,68.88,3,69.12,6c.11,1.33-.65.41-1.39,1.45s-1.43,2.74-3.37,2.79S59.67,2.83,59.67,2.83Z"/><path class="cls-3" d="M68,2.36c-.29.35-.35,1.2-1.06,1.37-1.18.29-.94-.93-2.17-1s-1.55,1.06-2.17,1A8.45,8.45,0,0,1,60.13,2a5.15,5.15,0,0,0-.46.8s2.75,7.44,4.69,7.4S67,8.47,67.73,7.44s1.5-.12,1.39-1.45A7.18,7.18,0,0,0,68,2.36Z"/><path class="cls-2" d="M33.4,4.11s2.63,2,2.1,7.77C35.08,16.31,35,28,35,28L19.89,24.18,25.56,8.7s-1.17-1.52.89-3.78S32.8,2.65,33.4,4.11Z"/><path class="cls-2" d="M77.06,16.93S94.89,22.73,98,37.18s-26.82,15-29.3,5.67S77.06,16.93,77.06,16.93Z"/><path class="cls-3" d="M33.4,4.11a1.44,1.44,0,0,0-.8-.7c.31,3.87-3.11,10-5.72,10.15A4.46,4.46,0,0,1,24,12.92L19.89,24.18,35,28s0-11.71.47-16.14C36,6.12,33.4,4.11,33.4,4.11Z"/><path class="cls-4" d="M84.2,100.83c-.56-11.75-1.61-23-3.48-31-.86-3.69-34.78-2.58-35.15-1.34C42.47,78.92,41.91,92,42,100.7c0,5.74.32,9.61.32,9.61S30,137.25,28,148.9c-.46,2.71,10.17,6,10.86,5,11-15.41,20.18-49,20.39-49,2.16-11.31,3.54-20,4.31-23C64,80.12,65,80.34,65,81.61c0,0,3.42,31.07,3.29,32.64-.2,2.34.48,37.12,5.8,41.28,1.62,1.26,9.81,1.76,10.15.85C84.23,156.38,85.46,127.33,84.2,100.83Z"/><path class="cls-4" d="M10.56,47a2.9,2.9,0,0,0,2.72,1.61c2.05,0,6.57-8.82,6-11.42s-4-2.72-4-2.72S9.34,42.77,10.56,47Z"/><path class="cls-4" d="M87.8,158.58A11,11,0,0,1,85,157.16a1.55,1.55,0,0,1-.24-.28,3.69,3.69,0,0,1-.37-.78,3.43,3.43,0,0,0-3.27-2.39H79a11.06,11.06,0,0,1-.78,3.44,7.3,7.3,0,0,1-.68,1.25c-1.15,1.71-2,3.22-.77,3.92,2.4,1.34,16.78,1.34,16.6,0C93.27,161.43,90.25,159.83,87.8,158.58Z"/><path class="cls-4" d="M41.36,156.37A11.1,11.1,0,0,1,39,154.26a1.25,1.25,0,0,1-.16-.33,3.31,3.31,0,0,1-.15-.86,3.46,3.46,0,0,0-2.54-3.16l-2-.54a11.12,11.12,0,0,1-1.66,3.11,8.58,8.58,0,0,1-1,1c-1.56,1.35-2.79,2.58-1.77,3.58,2,1.92,15.85,5.68,16,4.29C45.89,160.55,43.4,158.21,41.36,156.37Z"/><path class="cls-4" d="M57.74,6.81S55.05,4.51,57,1.89s5.53,1,5.53,1,2.27,1.18,2.86,2.76,1.18,4-.18,4.76S57.74,6.81,57.74,6.81Z"/><path class="cls-2" d="M81,71.24c0-7.86-.66-19,.36-24.71,1-5.36,3.66-15.18,2.59-22-.76-4.88-3.79-6.37-8.4-8.13-10.9-4.17-29.87-4.14-34.35,4.87-2,4,7.16,23,6.43,29.29-.62,5.35-1,6.12-2.47,19.26C50.48,73.1,63.75,78.31,81,71.24Z"/><path class="cls-5" d="M36.48,15.14,59,21.47s19.4-9,25.2-7.8S74.91,26,69.24,29.38s-23.63,3.07-30.48-1.06S36.48,15.14,36.48,15.14Z"/><path class="cls-6" d="M81.41,17.55c-2.6,2.66-13.86,6.77-16.7,6.84a21.65,21.65,0,0,1-5.29-.56L36.59,26.42a7.84,7.84,0,0,0,2.17,1.9c6.85,4.13,24.81,4.49,30.48,1.06,4.63-2.8,15.57-10.72,16.26-14.17A10.17,10.17,0,0,0,81.41,17.55Z"/><path class="cls-4" d="M36.48,15.14s-4.57,9,2.28,13.18c4,2.42,9.72,5.49,16.66,5.31,1.27-5.61,0-11.33-1.31-13.54Z"/><path class="cls-5" d="M64.58,8.08l2.35,7.05c0,.69-2.47,2.19-4.59,2.71-1,.25-2.85-.72-2.8-1.18a5,5,0,0,1,.39-1.39l2.65-5.78Z"/><path class="cls-4" d="M62.05,10.65l2.66-.49A4.87,4.87,0,0,1,63,13.3a4.59,4.59,0,0,1-2.72,1.12Z"/><path class="cls-5" d="M63,5.47l1.58,4A2.6,2.6,0,0,1,63,12.65a7.23,7.23,0,0,1-3.17.33c-1.16-.07-1.82-1.14-1.92-2.65a14.35,14.35,0,0,1,.61-4.78C59.15,3.33,61.8,3,63,5.47Z"/><path class="cls-5" d="M63.1,7.48a3.5,3.5,0,0,0,0-.79c0-.5,0-1.25.8-.93,1.12.46,1.14,3.14-.09,3.42C62.92,9.38,63,8.13,63.1,7.48Z"/><path class="cls-7" d="M60.58,8.57a7,7,0,0,1-2.31.22s0,.88.58,1.15S60.32,9.64,60.58,8.57Z"/><path class="cls-8" d="M59.34,11.5c1.28-.34,2.38,1.55,4.56-.45a3.22,3.22,0,0,0,.66-1.71l0,.08A2.6,2.6,0,0,1,63,12.65a7.23,7.23,0,0,1-3.17.33,1.8,1.8,0,0,1-1.55-1.12A6.85,6.85,0,0,0,59.34,11.5Z"/><path class="cls-5" d="M49.84,158.14c-1.44-.74-3.27-1.34-3.35-1.49a11.74,11.74,0,0,1,.32-2.85s15.22-69.43,7.87-95c-.55-1.92-11.13-5.5-24.38-5.24-5.06.63-14.72-5.5-17.86,5.51-4.17,14.62,1.24,44.25-2.86,57.28-5.39,17.12-8,41-8.35,41.55a3.12,3.12,0,0,1,.81.94c.66,1.15,7.65,1.15,8.84.76.7-.22.07-.94-.57-1.5-1.37-.58-2.36-1-2.7-1.52-.73-1.16,10.23-9.08,26.08-76.12,3.93,33.72,7.65,76.59,7.07,77.44a3.12,3.12,0,0,1,.81.94c.66,1.15,7.65,1.15,8.84.76C51.11,159.42,50.48,158.7,49.84,158.14Z"/><path class="cls-6" d="M14.87,118.34c-2.22,4.42-9.95,36.77-7.26,38.28-.59-1,6.54-6.36,17.75-44.39C21.19,113.66,16.13,115.85,14.87,118.34Z"/><path class="cls-6" d="M55.25,101.75l-19.36-1.24c.37,3.47.72,6.93,1.06,10.34,3.41,4.42,8,11,8.83,15.69,1.37,7.56-4.58,27.59.71,30.11a11.74,11.74,0,0,1,.32-2.85S52.51,127.78,55.25,101.75Z"/><path class="cls-4" d="M48.73,119.55c2.1-2.59-8.1-4.94-11.48-5.63q.34,3.48.67,6.84C40.64,121.21,46.8,121.93,48.73,119.55Z"/><path class="cls-4" d="M18.71,119.92c3.47-1.32-3.77-4.44-8.46-6.21a25.58,25.58,0,0,1-.67,2.68c-.34,1.08-.67,2.18-1,3.3C11.73,120.4,15.92,121,18.71,119.92Z"/><path class="cls-9" d="M54.68,58.84C54.13,56.92,53.57,55,53,53.07c-2.43-8.22-5.36-12.51-7-16.91-2.68-7.11-17.16-6-17.62.78-5.06.64-12.78,11.16-15.92,22.17-4,14,2.45,40-11.21,53.8,2.84.81,9,6.27,15,6.85,12.11,1.18,16.83-4,21.39-2.24,9.21,3.54,14.29,2.31,15.83-1C56.34,95.86,58.4,71.75,54.68,58.84Z"/><path class="cls-10" d="M54.68,58.84C54.13,56.92,53.57,55,53,53.07c-2.43-8.22-5.36-12.51-7-16.91-2.68-7.11-17.16-6-17.62.78,0,0,4.77,23.87,5.4,27.59s5.67,10,8.35,16.17S39.27,91.09,39.9,99.76c.52,7.19-8.23,11.45-9.48,18.46,2.9-.84,5-1.52,7.16-.7,9.21,3.54,14.29,2.31,15.83-1C56.34,95.86,58.4,71.75,54.68,58.84Z"/><path class="cls-4" d="M2,158.88c.66,1.15,7.65,1.15,8.84.76.7-.22.07-.94-.57-1.5,2.16,1.1,4.82,2.53,4.91,3.27.16,1.23-12.57,1.19-14.68,0-1.11-.62-.33-2,.69-3.47A3.12,3.12,0,0,1,2,158.88Z"/><path class="cls-11" d="M31.85,15.32A5.13,5.13,0,0,1,33.92,18c.36,1.59-1.44,2.36-3.23,1.79s-2.13-2.51-2.26-3.48S30.76,14.85,31.85,15.32Z"/><path class="cls-4" d="M23.69,38.82c3-9.27-2.12-19.68,2.47-22.53,4.13-2.56,10.05-3.2,14.8,2.11,3.06,3.44,6.32,10.74,5.17,17a5.26,5.26,0,0,1-3.6,4.09C40,40.32,35.29,41,26.25,40.66,22.33,40.51,23.69,38.85,23.69,38.82Z"/><path class="cls-4" d="M41.57,158.88c.66,1.15,7.65,1.15,8.84.76.7-.22.07-.94-.57-1.5,2.16,1.1,4.83,2.53,4.92,3.27.15,1.23-12.57,1.19-14.69,0-1.1-.62-.33-2,.69-3.47A3.12,3.12,0,0,1,41.57,158.88Z"/><path class="cls-9" d="M32.14,17.57s2.61-.24,4.1,1.12a13.67,13.67,0,0,1,2.29,2.68s-4.26.31-5.33-1.38a6.48,6.48,0,0,1-.41,3.71,10.9,10.9,0,0,1-1,1.7S28.72,19.44,32.14,17.57Z"/><path class="cls-5" d="M25.83,16.52A85.35,85.35,0,0,0,10,29.76c-6.8,7.6,3.3,18.31,11.94,18.92s7.54-1.88,7.4-4.08S17.85,35.7,18.63,33.66s8.59-7.94,9.5-12.94C28.67,17.81,25.83,16.52,25.83,16.52Z"/><path class="cls-6" d="M26,47.69c-.79-.39-7.64-2-9.14-4.09s-.94-2.44-.63-5.91c.24-2.67-3.38-7.24-5-9.2-.4.42-.79.84-1.18,1.27-6.8,7.6,3.3,18.31,11.94,18.92,3.24.23,5.11,0,6.18-.44A11.85,11.85,0,0,1,26,47.69Z"/><path class="cls-4" d="M19,34.79c-.32-.45-.46-.84-.35-1.13.79-2,9.55-7.72,10.49-12.71.64-3.4.25-5.88-1.11-5.62-4.25.84-11.16,6.84-18,14.43C6.59,33.62,6.15,40.41,10.56,47,9.66,43.2,17.24,35.23,19,34.79Z"/><path class="cls-12" d="M28.42,22.93,49.07,26a28.84,28.84,0,0,0,6.63.22L70,25.05a45.66,45.66,0,0,1,7.93,0l5.75.51a27.78,27.78,0,0,0,18.6-4.94l1.65-1.2L97.12,65.21,92,67.57a11.79,11.79,0,0,1-8.53.49h0a43.23,43.23,0,0,0-22-1.17l-9.43,2A12,12,0,0,1,46,68.52L29.82,63.25s.22-19.19-.37-25.36S28.42,22.93,28.42,22.93Z"/><path class="cls-5" d="M28.87,10.53,28.8,16c0,.91,2.21,3.23,3.64,2.08.41-.33-.13-1.57-.53-2.51l-1.07-4.71Z"/><path class="cls-4" d="M31.48,13.67a6.1,6.1,0,0,1-2.36-2.13H31Z"/><path class="cls-5" d="M28.54,9.12A3.14,3.14,0,0,0,31,12.74a2.7,2.7,0,0,0,3.24-2.55c.2-1.72-1.07-3.19-1.47-4C31.91,4.43,28.54,9.12,28.54,9.12Z"/><path class="cls-5" d="M28.93,9a2.38,2.38,0,0,1-.14-.54c-.06-.35-.23-.86-.71-.52-.69.5-.28,2.35.61,2.35C29.35,10.33,29.1,9.48,28.93,9Z"/><path class="cls-5" d="M33.35,8.39a3.37,3.37,0,0,0,0-.55c0-.36,0-.89.57-.67.79.33.81,2.22,0,2.43C33.23,9.75,33.28,8.86,33.35,8.39Z"/><path class="cls-7" d="M30.9,10a6.12,6.12,0,0,0,2-.27A2.49,2.49,0,0,1,32.35,11C31.93,11.29,31.33,10.85,30.9,10Z"/><g class="cls-13"><path class="cls-14" d="M31.19,12.06a4.13,4.13,0,0,0,2.22-.62,4.49,4.49,0,0,0,.85-1.34.28.28,0,0,0,0,.09A2.7,2.7,0,0,1,31,12.74,3,3,0,0,1,28.78,11,3.92,3.92,0,0,0,31.19,12.06Z"/></g><path class="cls-9" d="M28.82,14.47s1.69,2,2.37,2,.37-2.49.37-2.49,1.62,1.38,1.62,2.8.55,3.37-2,2.61S27.4,16.08,28.82,14.47Z"/><path class="cls-9" d="M33,.9C31.76-.26,28.84-.28,26.69.81c-.13-.4-.38-.88-.83-.8s-.29.88,0,1.29a5,5,0,0,0-.7.6c-1.86,2-2.62,4.92-1.87,5.67A5.85,5.85,0,0,0,25.56,8.7S25.89,5.34,30.28,4a5.4,5.4,0,0,1,3.12.09A2.63,2.63,0,0,0,33,.9Z"/><path class="cls-15" d="M102.25,20.64a26.64,26.64,0,0,1-8.68,4.09,15.55,15.55,0,0,1-1.65,5.6c-2.48,4.25-8.15,30.6-9.38,34.14s-13.54.36-15.61-1.3.3-35.21-.77-36.62-10.39.59-13.22,1-3.19,34.67-5,37.5-4.49-.71-7-2-6.81-27.64-8.37-32.72A26.66,26.66,0,0,0,28.87,23l-.45-.06s.43,8.8,1,15,.37,25.36.37,25.36L46,68.52a12,12,0,0,0,6.06.33l9.43-2a43.23,43.23,0,0,1,22,1.17h0A11.79,11.79,0,0,0,92,67.57l5.08-2.36,6.78-45.77Z"/><path class="cls-5" d="M28.11,45.71s1.06-1.93,2-2.09,3.22.46,2.9.71a7.68,7.68,0,0,1-2.33,0,9.27,9.27,0,0,1,2.54,1.34c.39.54-.47,1.29-1,1.41s-3.14,1.24-4.1.93S28.11,45.71,28.11,45.71Z"/><path class="cls-10" d="M33,.9A3.68,3.68,0,0,0,30.68,0a4.49,4.49,0,0,1,.51,1.87c0,1.24-3,.59-5.66,3.25a8.34,8.34,0,0,0-1.86,2.71,6.78,6.78,0,0,0,1.89.83S25.89,5.34,30.28,4a5.4,5.4,0,0,1,3.12.09A2.63,2.63,0,0,0,33,.9Z"/><path class="cls-5" d="M102.53,39.79s1-2.45.46-3.5-2.78-2.72-2.87-2.24c-.18,1,.87,1.7.87,1.7a6.5,6.5,0,0,0-2.34-.85c-.81,0-.87,1.42-.57,2.05s1.19,3.93,2.22,4.6S102.53,39.79,102.53,39.79Z"/><path class="cls-5" d="M83.06,13.61s1.59-1.12,1.88-1.81c.54-1.29,1.06-.88,1-.31a1.74,1.74,0,0,1-.32.89s3.15-1.28,3.84-1-.77.88-1.36,1.19.05.93-.57,2.23a3.7,3.7,0,0,1-4.41,1.33C81.86,15.34,83.06,13.61,83.06,13.61Z"/></g></g></g></svg>